# xmcd
#
# Track frame offsets:
#	150
#	11191
#	21398
#	34569
#	44524
#	55651
#	68654
#	80322
#	90062
#	101005
#	113038
#	128281
#
# Disc length: 1884 seconds
#
# Revision: 1
# Processed by: cddbd v1.5.1PL0 Copyright (c) Steve Scherf et al.
# Submitted via: audiograbber 1.83.01
#
DISCID=85075a0c
DTITLE=Boxcar Willie - Last Train To Heaven
DYEAR=1982
DGENRE=Country
TTITLE0=Last Train To Heaven
TTITLE1=Bummin' Around
TTITLE2=Bad News
TTITLE3=Keep On Rollin' Down The Line
TTITLE4=Freight Train Blues 
TTITLE5=Lonesome Joe
TTITLE6=We Made Memories
TTITLE7=You Got The Kind Of Love That Grabs A'Hold And Just Keeps Hangin' On
TTITLE8=To My Baby I'm A Big Star All The Time
TTITLE9=Don't Blame Me For What Happened Last Night
TTITLE10=There's Nothin' Like A Good Ole Country Song
TTITLE11=Lefty Left Us Lonely
EXTD=
EXTT0=
EXTT1=
EXTT2=
EXTT3=
EXTT4=
EXTT5=
EXTT6=
EXTT7=
EXTT8=
EXTT9=
EXTT10=
EXTT11=
PLAYORDER=
